<!DOCTYPE svg PUBLIC "-//W3C//DTD SVG 1.1//EN" "http://www.w3.org/Graphics/SVG/1.1/DTD/svg11.dtd">
<!-- Uploaded to: SVG Repo, www.svgrepo.com, Transformed by: SVG Repo Mixer Tools -->
<svg fill="#47699e" version="1.1" id="Layer_1" xmlns="http://www.w3.org/2000/svg" xmlns:xlink="http://www.w3.org/1999/xlink" viewBox="0 0 512 512" xml:space="preserve" width="64px" height="64px" stroke="#47699e">
<g id="SVGRepo_bgCarrier" stroke-width="0"/>
<g id="SVGRepo_tracerCarrier" stroke-linecap="round" stroke-linejoin="round"/>
<g id="SVGRepo_iconCarrier"> <g> <g> <g> <path d="M490.667,469.333H21.333C9.557,469.333,0,478.891,0,490.667S9.557,512,21.333,512h469.333 c11.776,0,21.333-9.557,21.333-21.333S502.443,469.333,490.667,469.333z"/> <path d="M97.901,426.667h81.536c30.464,0,55.232-24.768,55.232-55.232V55.232C234.669,24.768,209.901,0,179.437,0H97.901 C67.437,0,42.669,24.768,42.669,55.232v316.203C42.669,401.899,67.437,426.667,97.901,426.667z"/> <path d="M469.331,183.232c0-30.464-24.768-55.232-55.232-55.232h-81.536c-30.464,0-55.232,24.768-55.232,55.232v30.101h192 V183.232z"/> <rect x="277.333" y="256" width="192" height="42.667"/> <path d="M277.333,371.437c0,30.464,24.768,55.232,55.232,55.232h81.536c30.464,0,55.232-24.768,55.232-55.232v-30.101h-192 V371.437z"/> </g> </g> </g> </g>
</svg>